<?xml version="1.0" encoding="utf-8"?>
<svg id="master-artboard" viewBox="0 0 313.6026916503906 101.95294952392578" version="1.1" xmlns="http://www.w3.org/2000/svg" x="0px" y="0px" style="enable-background:new 0 0 336 235.2;" width="313.6026916503906px" height="101.95294952392578px"><defs><style id="ee-google-fonts">@import url(https://fonts.googleapis.com/css?family=Montserrat:400,700);</style><radialGradient id="gradient-0" gradientUnits="objectBoundingBox" cx="0.47382837533950806" cy="0.6211509108543396" r="0.5">
                <stop offset="0" style="stop-color: #429aff"/>
                <stop offset="1" style="stop-color: #0066db"/>
              </radialGradient></defs><rect id="ee-background" x="0" y="0" width="313.6026916503906" height="101.95294952392578" style="fill: white; fill-opacity: 0; pointer-events: none;"/>














<path d="M 887.3018188476562 430.91656494140625 L 887.3018188476562 425.9265441894531 L 905.9718017578125 417.28656005859375 L 905.9718017578125 421.8065490722656 L 892.0217895507812 428.1065673828125 L 892.0217895507812 428.53656005859375 L 905.9718017578125 434.9965515136719 L 905.9718017578125 439.51654052734375 L 887.3018188476562 430.91656494140625 ZM 920.99462890625 417.6165466308594 C 920.99462890625 417.6165466308594 921.2779541015625 417.9232177734375 921.8446044921875 418.53656005859375 C 922.4112548828125 419.15655517578125 922.6946411132812 420.3365478515625 922.6946411132812 422.0765686035156 C 922.6946411132812 423.8232116699219 922.1212768554688 425.3165588378906 920.974609375 426.5565490722656 C 919.8279418945312 427.79656982421875 918.4013061523438 428.41656494140625 916.6946411132812 428.41656494140625 C 914.9879760742188 428.41656494140625 913.5679321289062 427.80322265625 912.4346313476562 426.5765686035156 C 911.2946166992188 425.3498840332031 910.724609375 423.86322021484375 910.724609375 422.1165466308594 C 910.724609375 420.3765563964844 911.30126953125 418.8832092285156 912.45458984375 417.6365661621094 C 913.6012573242188 416.39654541015625 915.0279541015625 415.77655029296875 916.734619140625 415.77655029296875 C 918.4412841796875 415.77655029296875 919.8612670898438 416.389892578125 920.99462890625 417.6165466308594 M 937.1246337890625 416.4465637207031 L 916.8345947265625 444.15655517578125 L 911.714599609375 444.15655517578125 L 932.0146484375 416.4465637207031 L 937.1246337890625 416.4465637207031 M 918.3345947265625 424.15655517578125 C 918.3345947265625 424.15655517578125 918.4412841796875 424.0232238769531 918.6546020507812 423.7565612792969 C 918.8679809570312 423.48321533203125 918.974609375 422.94989013671875 918.974609375 422.15655517578125 C 918.974609375 421.36322021484375 918.7479248046875 420.6965637207031 918.2946166992188 420.15655517578125 C 917.8479614257812 419.6165466308594 917.30126953125 419.3465576171875 916.6546020507812 419.3465576171875 C 916.0079345703125 419.3465576171875 915.4713134765625 419.6165466308594 915.0446166992188 420.15655517578125 C 914.6246337890625 420.6965637207031 914.4146118164062 421.36322021484375 914.4146118164062 422.15655517578125 C 914.4146118164062 422.94989013671875 914.637939453125 423.6165466308594 915.0845947265625 424.15655517578125 C 915.5379638671875 424.7032165527344 916.0879516601562 424.9765625 916.734619140625 424.9765625 C 917.3812866210938 424.9765625 917.9146118164062 424.7032165527344 918.3345947265625 424.15655517578125 M 936.734619140625 433.6765441894531 C 936.734619140625 433.6765441894531 937.0179443359375 433.98321533203125 937.5845947265625 434.5965576171875 C 938.1513061523438 435.20989990234375 938.4346313476562 436.389892578125 938.4346313476562 438.1365661621094 C 938.4346313476562 439.8765563964844 937.8612670898438 441.3665466308594 936.714599609375 442.6065673828125 C 935.561279296875 443.85321044921875 934.1312866210938 444.4765625 932.4246215820312 444.4765625 C 930.724609375 444.4765625 929.3046264648438 443.8598937988281 928.1646118164062 442.6265563964844 C 927.0313110351562 441.39990234375 926.464599609375 439.9132080078125 926.464599609375 438.16656494140625 C 926.464599609375 436.4265441894531 927.0379638671875 434.9365539550781 928.1846313476562 433.6965637207031 C 929.3379516601562 432.44989013671875 930.7646484375 431.8265686035156 932.464599609375 431.8265686035156 C 934.1712646484375 431.8265686035156 935.5946044921875 432.4432373046875 936.734619140625 433.6765441894531 M 934.1546020507812 440.29656982421875 C 934.1546020507812 440.29656982421875 934.2612915039062 440.1598815917969 934.474609375 439.8865661621094 C 934.6812744140625 439.61322021484375 934.7846069335938 439.07989501953125 934.7846069335938 438.28656005859375 C 934.7846069335938 437.49322509765625 934.561279296875 436.8265686035156 934.1146240234375 436.28656005859375 C 933.66796875 435.7465515136719 933.1179809570312 435.4765625 932.464599609375 435.4765625 C 931.8179321289062 435.4765625 931.2846069335938 435.7465515136719 930.8646240234375 436.28656005859375 C 930.4446411132812 436.8265686035156 930.234619140625 437.49322509765625 930.234619140625 438.28656005859375 C 930.234619140625 439.07989501953125 930.4579467773438 439.7498779296875 930.9046020507812 440.29656982421875 C 931.3512573242188 440.8365478515625 931.89794921875 441.1065673828125 932.5446166992188 441.1065673828125 C 933.1912841796875 441.1065673828125 933.7279663085938 440.8365478515625 934.1546020507812 440.29656982421875 ZM 963.0057373046875 417.6165466308594 C 963.0057373046875 417.6165466308594 963.2890625 417.9232177734375 963.855712890625 418.53656005859375 C 964.42236328125 419.15655517578125 964.7057495117188 420.3365478515625 964.7057495117188 422.0765686035156 C 964.7057495117188 423.8232116699219 964.1323852539062 425.3165588378906 962.9857177734375 426.5565490722656 C 961.8390502929688 427.79656982421875 960.4124145507812 428.41656494140625 958.7057495117188 428.41656494140625 C 956.9990844726562 428.41656494140625 955.5790405273438 427.80322265625 954.4457397460938 426.5765686035156 C 953.3057250976562 425.3498840332031 952.7357177734375 423.86322021484375 952.7357177734375 422.1165466308594 C 952.7357177734375 420.3765563964844 953.3123779296875 418.8832092285156 954.4656982421875 417.6365661621094 C 955.6123657226562 416.39654541015625 957.0390625 415.77655029296875 958.7457275390625 415.77655029296875 C 960.452392578125 415.77655029296875 961.8723754882812 416.389892578125 963.0057373046875 417.6165466308594 M 979.1357421875 416.4465637207031 L 958.845703125 444.15655517578125 L 953.7257080078125 444.15655517578125 L 974.0257568359375 416.4465637207031 L 979.1357421875 416.4465637207031 M 960.345703125 424.15655517578125 C 960.345703125 424.15655517578125 960.452392578125 424.0232238769531 960.6657104492188 423.7565612792969 C 960.8790893554688 423.48321533203125 960.9857177734375 422.94989013671875 960.9857177734375 422.15655517578125 C 960.9857177734375 421.36322021484375 960.759033203125 420.6965637207031 960.3057250976562 420.15655517578125 C 959.8590698242188 419.6165466308594 959.3123779296875 419.3465576171875 958.6657104492188 419.3465576171875 C 958.01904296875 419.3465576171875 957.482421875 419.6165466308594 957.0557250976562 420.15655517578125 C 956.6357421875 420.6965637207031 956.4257202148438 421.36322021484375 956.4257202148438 422.15655517578125 C 956.4257202148438 422.94989013671875 956.6490478515625 423.6165466308594 957.095703125 424.15655517578125 C 957.549072265625 424.7032165527344 958.0990600585938 424.9765625 958.7457275390625 424.9765625 C 959.3923950195312 424.9765625 959.9257202148438 424.7032165527344 960.345703125 424.15655517578125 M 978.7457275390625 433.6765441894531 C 978.7457275390625 433.6765441894531 979.029052734375 433.98321533203125 979.595703125 434.5965576171875 C 980.1624145507812 435.20989990234375 980.4457397460938 436.389892578125 980.4457397460938 438.1365661621094 C 980.4457397460938 439.8765563964844 979.8723754882812 441.3665466308594 978.7257080078125 442.6065673828125 C 977.5723876953125 443.85321044921875 976.1423950195312 444.4765625 974.4357299804688 444.4765625 C 972.7357177734375 444.4765625 971.3157348632812 443.8598937988281 970.1757202148438 442.6265563964844 C 969.0424194335938 441.39990234375 968.4757080078125 439.9132080078125 968.4757080078125 438.16656494140625 C 968.4757080078125 436.4265441894531 969.049072265625 434.9365539550781 970.1957397460938 433.6965637207031 C 971.3490600585938 432.44989013671875 972.7757568359375 431.8265686035156 974.4757080078125 431.8265686035156 C 976.182373046875 431.8265686035156 977.605712890625 432.4432373046875 978.7457275390625 433.6765441894531 M 976.1657104492188 440.29656982421875 C 976.1657104492188 440.29656982421875 976.2723999023438 440.1598815917969 976.4857177734375 439.8865661621094 C 976.6923828125 439.61322021484375 976.7957153320312 439.07989501953125 976.7957153320312 438.28656005859375 C 976.7957153320312 437.49322509765625 976.5723876953125 436.8265686035156 976.125732421875 436.28656005859375 C 975.6790771484375 435.7465515136719 975.1290893554688 435.4765625 974.4757080078125 435.4765625 C 973.8290405273438 435.4765625 973.2957153320312 435.7465515136719 972.875732421875 436.28656005859375 C 972.4557495117188 436.8265686035156 972.2457275390625 437.49322509765625 972.2457275390625 438.28656005859375 C 972.2457275390625 439.07989501953125 972.4690551757812 439.7498779296875 972.9157104492188 440.29656982421875 C 973.3623657226562 440.8365478515625 973.9090576171875 441.1065673828125 974.5557250976562 441.1065673828125 C 975.202392578125 441.1065673828125 975.7390747070312 440.8365478515625 976.1657104492188 440.29656982421875 ZM 1003.827392578125 425.9265441894531 L 1003.827392578125 430.91656494140625 L 985.1574096679688 439.51654052734375 L 985.1574096679688 434.9965515136719 L 999.107421875 428.53656005859375 L 999.107421875 428.1065673828125 L 985.1574096679688 421.8065490722656 L 985.1574096679688 417.28656005859375 L 1003.827392578125 425.9265441894531 Z" transform="matrix(2.580190658569336, 0, 0, 2.580190658569336, -2284.19873046875, -1056.2080078125)" style="fill: rgb(139, 142, 140); white-space: pre; color: rgb(139, 142, 140);"/></svg>