<?xml version="1.0" encoding="utf-8"?>
<svg id="master-artboard" viewBox="0 0 905.4544677734375 128.2829132080078" version="1.1" xmlns="http://www.w3.org/2000/svg" x="0px" y="0px" style="enable-background:new 0 0 336 235.2;" width="905.4544677734375px" height="128.2829132080078px"><defs><style id="ee-google-fonts">@import url(https://fonts.googleapis.com/css?family=Montserrat:400,700);</style><radialGradient id="gradient-0" gradientUnits="objectBoundingBox" cx="0.47382837533950806" cy="0.6211509108543396" r="0.5">
                <stop offset="0" style="stop-color: #429aff"/>
                <stop offset="1" style="stop-color: #0066db"/>
              </radialGradient></defs><rect id="ee-background" x="0" y="0" width="905.4544677734375" height="128.2829132080078" style="fill: white; fill-opacity: 0; pointer-events: none;"/>














<path d="M 887.3018188476562 430.91656494140625 L 887.3018188476562 425.9265441894531 L 905.9718017578125 417.28656005859375 L 905.9718017578125 421.8065490722656 L 892.0217895507812 428.1065673828125 L 892.0217895507812 428.53656005859375 L 905.9718017578125 434.9965515136719 L 905.9718017578125 439.51654052734375 L 887.3018188476562 430.91656494140625 ZM 920.99462890625 417.6165466308594 C 920.99462890625 417.6165466308594 921.2779541015625 417.9232177734375 921.8446044921875 418.53656005859375 C 922.4112548828125 419.15655517578125 922.6946411132812 420.3365478515625 922.6946411132812 422.0765686035156 C 922.6946411132812 423.8232116699219 922.1212768554688 425.3165588378906 920.974609375 426.5565490722656 C 919.8279418945312 427.79656982421875 918.4013061523438 428.41656494140625 916.6946411132812 428.41656494140625 C 914.9879760742188 428.41656494140625 913.5679321289062 427.80322265625 912.4346313476562 426.5765686035156 C 911.2946166992188 425.3498840332031 910.724609375 423.86322021484375 910.724609375 422.1165466308594 C 910.724609375 420.3765563964844 911.30126953125 418.8832092285156 912.45458984375 417.6365661621094 C 913.6012573242188 416.39654541015625 915.0279541015625 415.77655029296875 916.734619140625 415.77655029296875 C 918.4412841796875 415.77655029296875 919.8612670898438 416.389892578125 920.99462890625 417.6165466308594 M 937.1246337890625 416.4465637207031 L 916.8345947265625 444.15655517578125 L 911.714599609375 444.15655517578125 L 932.0146484375 416.4465637207031 L 937.1246337890625 416.4465637207031 M 918.3345947265625 424.15655517578125 C 918.3345947265625 424.15655517578125 918.4412841796875 424.0232238769531 918.6546020507812 423.7565612792969 C 918.8679809570312 423.48321533203125 918.974609375 422.94989013671875 918.974609375 422.15655517578125 C 918.974609375 421.36322021484375 918.7479248046875 420.6965637207031 918.2946166992188 420.15655517578125 C 917.8479614257812 419.6165466308594 917.30126953125 419.3465576171875 916.6546020507812 419.3465576171875 C 916.0079345703125 419.3465576171875 915.4713134765625 419.6165466308594 915.0446166992188 420.15655517578125 C 914.6246337890625 420.6965637207031 914.4146118164062 421.36322021484375 914.4146118164062 422.15655517578125 C 914.4146118164062 422.94989013671875 914.637939453125 423.6165466308594 915.0845947265625 424.15655517578125 C 915.5379638671875 424.7032165527344 916.0879516601562 424.9765625 916.734619140625 424.9765625 C 917.3812866210938 424.9765625 917.9146118164062 424.7032165527344 918.3345947265625 424.15655517578125 M 936.734619140625 433.6765441894531 C 936.734619140625 433.6765441894531 937.0179443359375 433.98321533203125 937.5845947265625 434.5965576171875 C 938.1513061523438 435.20989990234375 938.4346313476562 436.389892578125 938.4346313476562 438.1365661621094 C 938.4346313476562 439.8765563964844 937.8612670898438 441.3665466308594 936.714599609375 442.6065673828125 C 935.561279296875 443.85321044921875 934.1312866210938 444.4765625 932.4246215820312 444.4765625 C 930.724609375 444.4765625 929.3046264648438 443.8598937988281 928.1646118164062 442.6265563964844 C 927.0313110351562 441.39990234375 926.464599609375 439.9132080078125 926.464599609375 438.16656494140625 C 926.464599609375 436.4265441894531 927.0379638671875 434.9365539550781 928.1846313476562 433.6965637207031 C 929.3379516601562 432.44989013671875 930.7646484375 431.8265686035156 932.464599609375 431.8265686035156 C 934.1712646484375 431.8265686035156 935.5946044921875 432.4432373046875 936.734619140625 433.6765441894531 M 934.1546020507812 440.29656982421875 C 934.1546020507812 440.29656982421875 934.2612915039062 440.1598815917969 934.474609375 439.8865661621094 C 934.6812744140625 439.61322021484375 934.7846069335938 439.07989501953125 934.7846069335938 438.28656005859375 C 934.7846069335938 437.49322509765625 934.561279296875 436.8265686035156 934.1146240234375 436.28656005859375 C 933.66796875 435.7465515136719 933.1179809570312 435.4765625 932.464599609375 435.4765625 C 931.8179321289062 435.4765625 931.2846069335938 435.7465515136719 930.8646240234375 436.28656005859375 C 930.4446411132812 436.8265686035156 930.234619140625 437.49322509765625 930.234619140625 438.28656005859375 C 930.234619140625 439.07989501953125 930.4579467773438 439.7498779296875 930.9046020507812 440.29656982421875 C 931.3512573242188 440.8365478515625 931.89794921875 441.1065673828125 932.5446166992188 441.1065673828125 C 933.1912841796875 441.1065673828125 933.7279663085938 440.8365478515625 934.1546020507812 440.29656982421875 ZM 965.3057250976562 420.7265625 L 965.3057250976562 444.15655517578125 L 960.625732421875 444.15655517578125 L 960.625732421875 420.7265625 L 952.2257080078125 420.7265625 L 952.2257080078125 416.4465637207031 L 973.7057495117188 416.4465637207031 L 973.7057495117188 420.7265625 L 965.3057250976562 420.7265625 ZM 997.76416015625 435.5565490722656 L 981.234130859375 435.5565490722656 C 981.3408203125 437.0898742675781 982.0408325195312 438.3232116699219 983.3341674804688 439.2565612792969 C 984.6341552734375 440.1965637207031 986.1141357421875 440.66656494140625 987.774169921875 440.66656494140625 C 990.4208374023438 440.66656494140625 992.4307861328125 439.8332214355469 993.8041381835938 438.16656494140625 L 996.3341674804688 440.9465637207031 C 994.060791015625 443.2998962402344 991.1041259765625 444.4765625 987.4641723632812 444.4765625 C 984.504150390625 444.4765625 981.984130859375 443.4898986816406 979.9041137695312 441.51654052734375 C 977.830810546875 439.5498962402344 976.7941284179688 436.9098815917969 976.7941284179688 433.5965576171875 C 976.7941284179688 430.27655029296875 977.850830078125 427.639892578125 979.9641723632812 425.6865539550781 C 982.0774536132812 423.73321533203125 984.57080078125 422.7565612792969 987.4441528320312 422.7565612792969 C 990.310791015625 422.7565612792969 992.7474975585938 423.619873046875 994.754150390625 425.3465576171875 C 996.7608032226562 427.07989501953125 997.76416015625 429.466552734375 997.76416015625 432.5065612792969 L 997.76416015625 435.5565490722656 M 981.234130859375 432.0665588378906 L 993.3241577148438 432.0665588378906 C 993.3241577148438 430.2998962402344 992.7708129882812 428.93988037109375 991.6641235351562 427.9865417480469 C 990.55078125 427.0332336425781 989.1807861328125 426.5565490722656 987.5541381835938 426.5565490722656 C 985.9341430664062 426.5565490722656 984.47412109375 427.05322265625 983.1741333007812 428.04656982421875 C 981.8807983398438 429.0332336425781 981.234130859375 430.37322998046875 981.234130859375 432.0665588378906 ZM 1007.0774536132812 432.7365417480469 L 1007.0774536132812 444.15655517578125 L 1002.637451171875 444.15655517578125 L 1002.637451171875 423.0665588378906 L 1007.0774536132812 423.0665588378906 L 1007.0774536132812 426.91656494140625 C 1007.7107543945312 425.62322998046875 1008.6674194335938 424.6065673828125 1009.9474487304688 423.8665466308594 C 1011.2340698242188 423.1265563964844 1012.617431640625 422.7565612792969 1014.097412109375 422.7565612792969 C 1017.424072265625 422.7565612792969 1019.6807861328125 424.1298828125 1020.867431640625 426.8765563964844 C 1022.9541015625 424.1298828125 1025.557373046875 422.7565612792969 1028.677490234375 422.7565612792969 C 1031.057373046875 422.7565612792969 1032.980712890625 423.48321533203125 1034.4473876953125 424.9365539550781 C 1035.9140625 426.389892578125 1036.6474609375 428.4898986816406 1036.6474609375 431.2365417480469 L 1036.6474609375 444.15655517578125 L 1032.2073974609375 444.15655517578125 L 1032.2073974609375 432.5865478515625 C 1032.2073974609375 428.69989013671875 1030.5941162109375 426.7565612792969 1027.367431640625 426.7565612792969 C 1025.8607177734375 426.7565612792969 1024.5474853515625 427.2398986816406 1023.4274291992188 428.20654296875 C 1022.3074340820312 429.16656494140625 1021.7207641601562 430.5732116699219 1021.6674194335938 432.4265441894531 L 1021.6674194335938 444.15655517578125 L 1017.2274169921875 444.15655517578125 L 1017.2274169921875 432.5865478515625 C 1017.2274169921875 430.5732116699219 1016.8707885742188 429.0998840332031 1016.1574096679688 428.16656494140625 C 1015.444091796875 427.2265625 1014.3207397460938 426.7565612792969 1012.7874145507812 426.7565612792969 C 1011.2540893554688 426.7565612792969 1009.9174194335938 427.26654052734375 1008.7774047851562 428.28656005859375 C 1007.6441040039062 429.2998962402344 1007.0774536132812 430.7832336425781 1007.0774536132812 432.7365417480469 ZM 1054.12548828125 422.7565612792969 C 1054.12548828125 422.7565612792969 1054.8321533203125 422.7565612792969 1056.2454833984375 422.7565612792969 C 1057.6588134765625 422.7565612792969 1059.3687744140625 423.73321533203125 1061.37548828125 425.6865539550781 C 1063.3822021484375 427.639892578125 1064.385498046875 430.24322509765625 1064.385498046875 433.4965515136719 C 1064.385498046875 436.74322509765625 1063.3887939453125 439.3865661621094 1061.3955078125 441.4265441894531 C 1059.402099609375 443.45989990234375 1057.075439453125 444.4765625 1054.41552734375 444.4765625 C 1051.7620849609375 444.4765625 1049.3787841796875 443.313232421875 1047.2655029296875 440.9865417480469 L 1047.2655029296875 451.8465576171875 L 1042.825439453125 451.8465576171875 L 1042.825439453125 423.0665588378906 L 1047.2655029296875 423.0665588378906 L 1047.2655029296875 426.7565612792969 C 1049.0120849609375 424.0898742675781 1051.298828125 422.7565612792969 1054.12548828125 422.7565612792969 M 1047.1854248046875 433.65655517578125 C 1047.1854248046875 433.65655517578125 1047.1854248046875 434.15655517578125 1047.1854248046875 435.15655517578125 C 1047.1854248046875 436.1632080078125 1047.7921142578125 437.3065490722656 1049.0054931640625 438.5865478515625 C 1050.2254638671875 439.8665466308594 1051.7054443359375 440.5065612792969 1053.4454345703125 440.5065612792969 C 1055.192138671875 440.5065612792969 1056.712158203125 439.87322998046875 1058.0054931640625 438.6065673828125 C 1059.298828125 437.3398742675781 1059.9454345703125 435.6965637207031 1059.9454345703125 433.6765441894531 C 1059.9454345703125 431.64990234375 1059.3121337890625 429.9698791503906 1058.0455322265625 428.6365661621094 C 1056.77880859375 427.30322265625 1055.2587890625 426.6365661621094 1053.4854736328125 426.6365661621094 C 1051.7188720703125 426.6365661621094 1050.2254638671875 427.30322265625 1049.0054931640625 428.6365661621094 C 1047.7921142578125 429.9698791503906 1047.1854248046875 431.6432189941406 1047.1854248046875 433.65655517578125 ZM 1073.89892578125 444.15655517578125 L 1069.4588623046875 444.15655517578125 L 1069.4588623046875 414.7465515136719 L 1073.89892578125 414.7465515136719 L 1073.89892578125 444.15655517578125 ZM 1097.3984375 444.15655517578125 L 1093.3583984375 444.15655517578125 L 1093.3583984375 441.3465576171875 C 1091.6116943359375 443.4332275390625 1089.2750244140625 444.4765625 1086.348388671875 444.4765625 C 1084.155029296875 444.4765625 1082.33837890625 443.85321044921875 1080.8984375 442.6065673828125 C 1079.4583740234375 441.3665466308594 1078.7384033203125 439.70989990234375 1078.7384033203125 437.6365661621094 C 1078.7384033203125 435.563232421875 1079.501708984375 434.0098876953125 1081.0284423828125 432.9765625 C 1082.561767578125 431.94989013671875 1084.638427734375 431.4365539550781 1087.2584228515625 431.4365539550781 L 1092.9984130859375 431.4365539550781 L 1092.9984130859375 430.6365661621094 C 1092.9984130859375 427.8365478515625 1091.4417724609375 426.4365539550781 1088.328369140625 426.4365539550781 C 1086.368408203125 426.4365539550781 1084.331787109375 427.14990234375 1082.2183837890625 428.5765686035156 L 1080.2384033203125 425.8065490722656 C 1082.8050537109375 423.7732238769531 1085.7117919921875 422.7565612792969 1088.9583740234375 422.7565612792969 C 1091.445068359375 422.7565612792969 1093.47509765625 423.3832092285156 1095.04833984375 424.6365661621094 C 1096.6151123046875 425.889892578125 1097.3984375 427.86322021484375 1097.3984375 430.5565490722656 L 1097.3984375 444.15655517578125 M 1092.9583740234375 436.3065490722656 L 1092.9583740234375 434.52655029296875 L 1087.9683837890625 434.52655029296875 C 1084.7684326171875 434.52655029296875 1083.16845703125 435.5298767089844 1083.16845703125 437.53656005859375 C 1083.16845703125 438.56988525390625 1083.5650634765625 439.3565673828125 1084.3583984375 439.89654541015625 C 1085.1517333984375 440.4365539550781 1086.2550048828125 440.70654296875 1087.66845703125 440.70654296875 C 1089.081787109375 440.70654296875 1090.318359375 440.30987548828125 1091.37841796875 439.51654052734375 C 1092.4317626953125 438.7232360839844 1092.9583740234375 437.6532287597656 1092.9583740234375 436.3065490722656 ZM 1108.8153076171875 426.6365661621094 L 1108.8153076171875 437.3365478515625 C 1108.8153076171875 438.3432312011719 1109.07861328125 439.1432189941406 1109.605224609375 439.7365417480469 C 1110.1385498046875 440.32989501953125 1110.8785400390625 440.6265563964844 1111.8251953125 440.6265563964844 C 1112.778564453125 440.6265563964844 1113.69189453125 440.16656494140625 1114.5653076171875 439.2465515136719 L 1116.38525390625 442.3765563964844 C 1114.8251953125 443.77655029296875 1113.1019287109375 444.4765625 1111.2152099609375 444.4765625 C 1109.3218994140625 444.4765625 1107.7086181640625 443.8232116699219 1106.375244140625 442.51654052734375 C 1105.0418701171875 441.2032165527344 1104.375244140625 439.4365539550781 1104.375244140625 437.216552734375 L 1104.375244140625 426.6365661621094 L 1101.7252197265625 426.6365661621094 L 1101.7252197265625 423.0665588378906 L 1104.375244140625 423.0665588378906 L 1104.375244140625 416.4465637207031 L 1108.8153076171875 416.4465637207031 L 1108.8153076171875 423.0665588378906 L 1114.365234375 423.0665588378906 L 1114.365234375 426.6365661621094 L 1108.8153076171875 426.6365661621094 ZM 1139.5318603515625 435.5565490722656 L 1123.001953125 435.5565490722656 C 1123.1085205078125 437.0898742675781 1123.80859375 438.3232116699219 1125.1019287109375 439.2565612792969 C 1126.40185546875 440.1965637207031 1127.8819580078125 440.66656494140625 1129.5418701171875 440.66656494140625 C 1132.1885986328125 440.66656494140625 1134.1986083984375 439.8332214355469 1135.5718994140625 438.16656494140625 L 1138.1019287109375 440.9465637207031 C 1135.82861328125 443.2998962402344 1132.8719482421875 444.4765625 1129.23193359375 444.4765625 C 1126.2718505859375 444.4765625 1123.751953125 443.4898986816406 1121.671875 441.51654052734375 C 1119.5985107421875 439.5498962402344 1118.5618896484375 436.9098815917969 1118.5618896484375 433.5965576171875 C 1118.5618896484375 430.27655029296875 1119.6185302734375 427.639892578125 1121.73193359375 425.6865539550781 C 1123.84521484375 423.73321533203125 1126.338623046875 422.7565612792969 1129.2119140625 422.7565612792969 C 1132.07861328125 422.7565612792969 1134.5152587890625 423.619873046875 1136.5218505859375 425.3465576171875 C 1138.528564453125 427.07989501953125 1139.5318603515625 429.466552734375 1139.5318603515625 432.5065612792969 L 1139.5318603515625 435.5565490722656 M 1123.001953125 432.0665588378906 L 1135.0919189453125 432.0665588378906 C 1135.0919189453125 430.2998962402344 1134.53857421875 428.93988037109375 1133.431884765625 427.9865417480469 C 1132.318603515625 427.0332336425781 1130.9486083984375 426.5565490722656 1129.3218994140625 426.5565490722656 C 1127.701904296875 426.5565490722656 1126.241943359375 427.05322265625 1124.94189453125 428.04656982421875 C 1123.6485595703125 429.0332336425781 1123.001953125 430.37322998046875 1123.001953125 432.0665588378906 ZM 1155.4652099609375 427.2365417480469 C 1153.2718505859375 427.2365417480469 1151.6185302734375 427.94989013671875 1150.5052490234375 429.3765563964844 C 1149.3985595703125 430.80322265625 1148.84521484375 432.716552734375 1148.84521484375 435.1165466308594 L 1148.84521484375 444.15655517578125 L 1144.4051513671875 444.15655517578125 L 1144.4051513671875 423.0665588378906 L 1148.84521484375 423.0665588378906 L 1148.84521484375 427.3065490722656 C 1149.5584716796875 425.9865417480469 1150.528564453125 424.9032287597656 1151.7552490234375 424.0565490722656 C 1152.988525390625 423.216552734375 1154.2918701171875 422.7832336425781 1155.6651611328125 422.7565612792969 L 1155.7052001953125 427.2365417480469 C 1155.625244140625 427.2365417480469 1155.545166015625 427.2365417480469 1155.4652099609375 427.2365417480469 ZM 1179.799072265625 417.6165466308594 C 1179.799072265625 417.6165466308594 1180.0823974609375 417.9232177734375 1180.6490478515625 418.53656005859375 C 1181.2156982421875 419.15655517578125 1181.4990234375 420.3365478515625 1181.4990234375 422.0765686035156 C 1181.4990234375 423.8232116699219 1180.92578125 425.3165588378906 1179.779052734375 426.5565490722656 C 1178.6324462890625 427.79656982421875 1177.2056884765625 428.41656494140625 1175.4990234375 428.41656494140625 C 1173.7923583984375 428.41656494140625 1172.3724365234375 427.80322265625 1171.239013671875 426.5765686035156 C 1170.09912109375 425.3498840332031 1169.529052734375 423.86322021484375 1169.529052734375 422.1165466308594 C 1169.529052734375 420.3765563964844 1170.105712890625 418.8832092285156 1171.259033203125 417.6365661621094 C 1172.40576171875 416.39654541015625 1173.8323974609375 415.77655029296875 1175.5390625 415.77655029296875 C 1177.2457275390625 415.77655029296875 1178.665771484375 416.389892578125 1179.799072265625 417.6165466308594 M 1195.9290771484375 416.4465637207031 L 1175.6390380859375 444.15655517578125 L 1170.51904296875 444.15655517578125 L 1190.819091796875 416.4465637207031 L 1195.9290771484375 416.4465637207031 M 1177.1390380859375 424.15655517578125 C 1177.1390380859375 424.15655517578125 1177.2457275390625 424.0232238769531 1177.4591064453125 423.7565612792969 C 1177.67236328125 423.48321533203125 1177.779052734375 422.94989013671875 1177.779052734375 422.15655517578125 C 1177.779052734375 421.36322021484375 1177.5523681640625 420.6965637207031 1177.09912109375 420.15655517578125 C 1176.65234375 419.6165466308594 1176.105712890625 419.3465576171875 1175.4591064453125 419.3465576171875 C 1174.8123779296875 419.3465576171875 1174.2757568359375 419.6165466308594 1173.84912109375 420.15655517578125 C 1173.4290771484375 420.6965637207031 1173.2191162109375 421.36322021484375 1173.2191162109375 422.15655517578125 C 1173.2191162109375 422.94989013671875 1173.4423828125 423.6165466308594 1173.8890380859375 424.15655517578125 C 1174.3424072265625 424.7032165527344 1174.8924560546875 424.9765625 1175.5390625 424.9765625 C 1176.1856689453125 424.9765625 1176.7191162109375 424.7032165527344 1177.1390380859375 424.15655517578125 M 1195.5390625 433.6765441894531 C 1195.5390625 433.6765441894531 1195.8223876953125 433.98321533203125 1196.3890380859375 434.5965576171875 C 1196.9556884765625 435.20989990234375 1197.239013671875 436.389892578125 1197.239013671875 438.1365661621094 C 1197.239013671875 439.8765563964844 1196.665771484375 441.3665466308594 1195.51904296875 442.6065673828125 C 1194.36572265625 443.85321044921875 1192.935791015625 444.4765625 1191.22900390625 444.4765625 C 1189.529052734375 444.4765625 1188.1090087890625 443.8598937988281 1186.9691162109375 442.6265563964844 C 1185.835693359375 441.39990234375 1185.26904296875 439.9132080078125 1185.26904296875 438.16656494140625 C 1185.26904296875 436.4265441894531 1185.8424072265625 434.9365539550781 1186.989013671875 433.6965637207031 C 1188.142333984375 432.44989013671875 1189.569091796875 431.8265686035156 1191.26904296875 431.8265686035156 C 1192.9757080078125 431.8265686035156 1194.3990478515625 432.4432373046875 1195.5390625 433.6765441894531 M 1192.9591064453125 440.29656982421875 C 1192.9591064453125 440.29656982421875 1193.065673828125 440.1598815917969 1193.279052734375 439.8865661621094 C 1193.4857177734375 439.61322021484375 1193.589111328125 439.07989501953125 1193.589111328125 438.28656005859375 C 1193.589111328125 437.49322509765625 1193.36572265625 436.8265686035156 1192.9190673828125 436.28656005859375 C 1192.472412109375 435.7465515136719 1191.92236328125 435.4765625 1191.26904296875 435.4765625 C 1190.6224365234375 435.4765625 1190.089111328125 435.7465515136719 1189.6690673828125 436.28656005859375 C 1189.2490234375 436.8265686035156 1189.0390625 437.49322509765625 1189.0390625 438.28656005859375 C 1189.0390625 439.07989501953125 1189.262451171875 439.7498779296875 1189.7091064453125 440.29656982421875 C 1190.15576171875 440.8365478515625 1190.702392578125 441.1065673828125 1191.34912109375 441.1065673828125 C 1191.9957275390625 441.1065673828125 1192.5323486328125 440.8365478515625 1192.9591064453125 440.29656982421875 ZM 1220.6207275390625 425.9265441894531 L 1220.6207275390625 430.91656494140625 L 1201.95068359375 439.51654052734375 L 1201.95068359375 434.9965515136719 L 1215.900634765625 428.53656005859375 L 1215.900634765625 428.1065673828125 L 1201.95068359375 421.8065490722656 L 1201.95068359375 417.28656005859375 L 1220.6207275390625 425.9265441894531 Z" transform="matrix(2.580190658569336, 0, 0, 2.580190658569336, -2261.30322265625, -1044.7601318359375)" style="fill: rgb(139, 142, 140); white-space: pre; color: rgb(51, 51, 51);"/></svg>